<?xml version="1.0" encoding="utf-8"?>
<!-- Generator: Adobe Illustrator 26.0.2, SVG Export Plug-In . SVG Version: 6.00 Build 0)  -->
<svg version="1.1" xmlns="http://www.w3.org/2000/svg" xmlns:xlink="http://www.w3.org/1999/xlink" x="0px" y="0px"
	 viewBox="0 0 369.39 369.39" style="enable-background:new 0 0 369.39 369.39;" xml:space="preserve">
<style type="text/css">
	.st0{fill:#1B1464;}
	.st1{fill:#FFFFFF;}
	.st2{fill:url(#SVGID_1_);}
	.st3{fill:url(#SVGID_00000062893582471600122860000001419658059993324467_);}
	.st4{fill:url(#SVGID_00000108987819136272219000000005644154567982327699_);}
	.st5{fill:url(#SVGID_00000129199519328984124460000005493538540641510583_);}
	.st6{fill:url(#SVGID_00000083795765085580929320000016938935585377795519_);}
	.st7{fill:url(#SVGID_00000021808981089117833730000007693154767849822877_);}
	.st8{fill:url(#SVGID_00000082366078009079313340000005674565925725738658_);}
	.st9{fill:url(#SVGID_00000047043310618131578720000001640340052685747328_);}
	.st10{fill:#00FFFF;}
	.st11{fill:url(#SVGID_00000048468357140228379910000007124304334954140344_);}
</style>
<g id="Calque_2">
</g>
<g id="Calque_1">
	<g>
		<path d="M244.98,146.62c-7.78-10.35-23.41-13.05-41.56-8.88c-0.29,0.07-0.38,0.44-0.16,0.63c0.01,0.01,0.02,0.02,0.03,0.02
			c1.17,0.97,2.69,1.37,4.2,1.19c12.15-1.46,22.18,1.12,27.51,8.22c8.74,11.63,2.42,31.94-14.06,50.75
			c-5.2,5.94-11.41,11.72-18.48,17.04c-29.46,22.15-62.65,27.69-74.15,12.4c-4.62-6.14-5.03-14.72-1.96-24.22
			c0.31-0.95-0.4-1.93-1.4-1.93c-0.6,0-1.14,0.36-1.37,0.91c-5.53,13.38-5.7,25.84,0.81,34.5c13.7,18.24,51.81,12.74,85.1-12.28
			C242.81,199.93,258.69,164.85,244.98,146.62z"/>
		<g>
			<path d="M221.07,169.59c-22.13,4.85-39.55,22.26-44.4,44.4c-0.33,1.48-2.38,1.48-2.7,0c-4.85-22.13-22.26-39.55-44.38-44.4
				c-1.48-0.33-1.48-2.38,0-2.7c22.12-4.85,39.53-22.26,44.38-44.38c0.33-1.48,2.38-1.48,2.7,0c4.85,22.12,22.26,39.53,44.4,44.38
				C222.55,167.21,222.55,169.26,221.07,169.59z"/>
		</g>
	</g>
</g>
</svg>
