<?xml version="1.0" encoding="utf-8"?>
<!-- Generator: Adobe Illustrator 26.0.2, SVG Export Plug-In . SVG Version: 6.00 Build 0)  -->
<svg version="1.1" xmlns="http://www.w3.org/2000/svg" xmlns:xlink="http://www.w3.org/1999/xlink" x="0px" y="0px"
	 viewBox="0 0 369.39 369.39" style="enable-background:new 0 0 369.39 369.39;" xml:space="preserve">
<style type="text/css">
	.st0{fill:#1B1464;}
	.st1{fill:#FFFFFF;}
	.st2{fill:url(#SVGID_1_);}
	.st3{fill:url(#SVGID_00000037675066762452847410000014436235657127704207_);}
	.st4{fill:url(#SVGID_00000041979619531233397320000004335782430947372460_);}
	.st5{fill:url(#SVGID_00000039822999457149835700000002042867962450028160_);}
	.st6{fill:url(#SVGID_00000075123378708123229210000002129734526435243439_);}
	.st7{fill:url(#SVGID_00000139275590334276341590000002598189218605247622_);}
	.st8{fill:url(#SVGID_00000088133527427751214850000015283382537122316988_);}
	.st9{fill:url(#SVGID_00000178904751795370972010000012528622269541818264_);}
	.st10{fill:#00FFFF;}
	.st11{fill:url(#SVGID_00000147914578108839274100000012148884802900941968_);}
</style>
<g id="Calque_2">
</g>
<g id="Calque_1">
	<g>
		<path d="M284.67,210.97c-1.15,2.19-3.45,3.97-5.64,3.97h-22.98c-1.36,0-2.82-0.1-3.03-2.4l-2.92-23.71l-12.95,23.71
			c-1.25,2.3-2.61,2.4-3.97,2.4h-23.08c-2.19,0-3.66-1.78-3.86-3.97l-6.48-54.84c-0.21-2.09,1.78-3.86,3.86-3.86h29.98
			c2.19,0,3.86,1.78,3.86,3.86l1.46,30.19l15.88-26.85h3.13l4.49,26.85l14.31-30.19c0.94-2.09,3.24-3.86,5.43-3.86h30.08
			c2.09,0,3.24,1.78,2.19,3.86L284.67,210.97z"/>
		<g>
			<path d="M84.72,156.24c1.15-2.19,3.45-3.97,5.64-3.97h22.98c1.36,0,2.82,0.1,3.03,2.4l2.92,23.71l12.95-23.71
				c1.25-2.3,2.61-2.4,3.97-2.4h23.08c2.19,0,3.66,1.78,3.86,3.97l6.48,54.84c0.21,2.09-1.78,3.86-3.86,3.86H135.8
				c-2.19,0-3.86-1.78-3.86-3.86l-1.46-30.19l-15.88,26.85h-3.13l-4.49-26.85l-14.31,30.19c-0.94,2.09-3.24,3.86-5.43,3.86H57.14
				c-2.09,0-3.24-1.78-2.19-3.86L84.72,156.24z"/>
		</g>
		<g>
			<path d="M195.02,209.66c-3.63,0.79-6.48,3.65-7.28,7.28c-0.05,0.24-0.39,0.24-0.44,0c-0.79-3.63-3.65-6.48-7.27-7.28
				c-0.24-0.05-0.24-0.39,0-0.44c3.63-0.79,6.48-3.65,7.27-7.27c0.05-0.24,0.39-0.24,0.44,0c0.79,3.63,3.65,6.48,7.28,7.27
				C195.27,209.27,195.27,209.61,195.02,209.66z"/>
		</g>
	</g>
</g>
</svg>
