<?xml version="1.0" encoding="utf-8"?>
<!-- Generator: Adobe Illustrator 26.0.2, SVG Export Plug-In . SVG Version: 6.00 Build 0)  -->
<svg version="1.1" xmlns="http://www.w3.org/2000/svg" xmlns:xlink="http://www.w3.org/1999/xlink" x="0px" y="0px"
	 viewBox="0 0 369.39 369.39" style="enable-background:new 0 0 369.39 369.39;" xml:space="preserve">
<style type="text/css">
	.st0{fill:#1B1464;}
	.st1{fill:#FFFFFF;}
	.st2{fill:url(#SVGID_1_);}
	.st3{fill:url(#SVGID_00000098922848048219850260000017211088910566472078_);}
	.st4{fill:url(#SVGID_00000158750794279141956160000007222753246714347404_);}
	.st5{fill:url(#SVGID_00000134931077216239543210000004894884467160271014_);}
	.st6{fill:url(#SVGID_00000085936979112123069640000004103100885642861968_);}
	.st7{fill:url(#SVGID_00000052789057375062506590000012344799094989483944_);}
	.st8{fill:url(#SVGID_00000052804537494489362610000004030873015264259242_);}
	.st9{fill:url(#SVGID_00000079454808751456439200000010086578299288913050_);}
	.st10{fill:#00FFFF;}
	.st11{fill:url(#SVGID_00000037685024561767034200000008786193718257567393_);}
</style>
<g id="Calque_2">
</g>
<g id="Calque_1">
	<g>
		<path d="M253.7,251.64c-67.5,50.72-144.73,61.87-172.51,24.9c-13.2-17.57-12.87-42.82-1.65-69.94c0.46-1.12,1.56-1.84,2.77-1.84
			l0,0c2.03,0,3.46,1.98,2.84,3.92c-6.24,19.26-5.4,36.64,3.96,49.1c23.3,30.99,90.59,19.75,150.3-25.14
			c14.34-10.77,26.93-22.5,37.47-34.53c33.39-38.12,46.2-79.3,28.49-102.86c-23.3-31-90.6-19.75-150.32,25.14
			c-1,0.75-1.99,1.51-2.98,2.27c-0.29,0.22-0.64,0.35-1.01,0.35l0,0c-1.57,0-2.24-1.99-1-2.95c1-0.77,2-1.54,3.02-2.3
			c67.48-50.72,144.72-61.87,172.51-24.9C353.37,129.82,321.18,200.92,253.7,251.64z"/>
		<path d="M263.94,193.38c-1.15,2.19-3.45,3.97-5.64,3.97h-22.98c-1.36,0-2.82-0.1-3.03-2.4l-2.92-23.71l-12.95,23.71
			c-1.25,2.3-2.61,2.4-3.97,2.4h-23.08c-2.19,0-3.66-1.78-3.86-3.97l-6.48-54.84c-0.21-2.09,1.78-3.86,3.86-3.86h29.98
			c2.19,0,3.86,1.78,3.86,3.86l1.46,30.19l15.88-26.85h3.13l4.49,26.85L256,138.54c0.94-2.09,3.24-3.86,5.43-3.86h30.08
			c2.09,0,3.24,1.78,2.19,3.86L263.94,193.38z"/>
		<g>
			<path d="M63.98,138.65c1.15-2.19,3.45-3.97,5.64-3.97H92.6c1.36,0,2.82,0.1,3.03,2.4l2.92,23.71l12.95-23.71
				c1.25-2.3,2.61-2.4,3.97-2.4h23.08c2.19,0,3.66,1.78,3.86,3.97l6.48,54.84c0.21,2.09-1.78,3.86-3.86,3.86h-29.98
				c-2.19,0-3.86-1.78-3.86-3.86l-1.46-30.19l-15.88,26.85h-3.13l-4.49-26.85l-14.31,30.19c-0.94,2.09-3.24,3.86-5.43,3.86H36.4
				c-2.09,0-3.24-1.78-2.19-3.86L63.98,138.65z"/>
		</g>
		<g>
			<path d="M174.28,192.07c-3.63,0.79-6.48,3.65-7.28,7.28c-0.05,0.24-0.39,0.24-0.44,0c-0.79-3.63-3.65-6.48-7.27-7.28
				c-0.24-0.05-0.24-0.39,0-0.44c3.63-0.79,6.48-3.65,7.27-7.27c0.05-0.24,0.39-0.24,0.44,0c0.79,3.63,3.65,6.48,7.28,7.27
				C174.53,191.68,174.53,192.02,174.28,192.07z"/>
		</g>
		<g>
			<path d="M111.89,214.31c-0.21,1.07-1.59,1.94-3.05,1.94H92.69c-0.41,0-0.66-0.33-0.58-0.74l2.18-10.21
				c0.08-0.39,0.47-0.72,0.87-0.72h16.18c1.46,0,2.45,0.88,2.22,1.95L111.89,214.31z M103.53,206.28h-0.91l-1.75,8.26h0.91
				c0.84,0,1.63-0.6,1.81-1.36l1.17-5.52C104.92,206.9,104.37,206.28,103.53,206.28z"/>
			<path d="M131.01,214.43c-0.08-0.23-0.29-0.39-0.58-0.39c-0.41,0-0.8,0.27-0.87,0.68c-0.19,0.86-1.28,1.54-2.45,1.54h-12.09
				c-1.17,0-1.96-0.7-1.79-1.56l1.32-6.22c0.18-0.86,1.28-1.56,2.45-1.56h12.09c1.17,0,1.96,0.7,1.79,1.56l-0.39,1.85
				c-0.19,0.85-1.28,1.56-2.45,1.56h-7.02l-0.41,1.9c-0.14,0.62,0.19,1.11,0.74,1.11c0.52,0,1.07-0.47,1.2-1.07
				c0.18-0.86,1.24-1.09,2.41-1.09h3.54c1.2,0,2.16,0.18,2.62,1.07L131.01,214.43z M122.75,208.28c-0.54,0-1.07,0.49-1.2,1.11
				l-0.27,1.32h1.94l0.27-1.32C123.62,208.77,123.29,208.28,122.75,208.28z"/>
			<path d="M149.29,209.1c-0.08-0.23-0.29-0.39-0.58-0.39c-0.41,0-0.66,0.35-0.89,0.76l-3.67,6.2c-0.19,0.29-0.53,0.58-0.84,0.58
				h-9.72c-0.31,0-0.58-0.27-0.58-0.58l-0.95-8.17c0-0.33,0.27-0.58,0.58-0.58h6.03c0.33,0,0.58,0.25,0.58,0.58l0.04,5.81l2.06-4.84
				c0.39-0.86,1.28-1.54,2.45-1.54c0.68-0.02,2.99-0.02,2.99-0.02c1.19,0.04,2.16,0.66,2.64,1.56L149.29,209.1z"/>
		</g>
	</g>
</g>
</svg>
